<svg width="24" height="24" viewBox="0 0 24 24" fill="none" xmlns="http://www.w3.org/2000/svg">
<g clip-path="url(#clip0_105_7045)">
<path d="M24 12.0728C24 18.0618 19.606 23.0268 13.87 23.9278V15.5648H16.659L17.19 12.1048H13.87V9.85975C13.87 8.91276 14.334 7.99076 15.82 7.99076H17.329V5.04475C17.329 5.04475 15.959 4.81075 14.65 4.81075C11.916 4.81075 10.13 6.46775 10.13 9.46675V12.1038H7.091V15.5638H10.13V23.9268C4.395 23.0248 0 18.0608 0 12.0728C0 5.44575 5.373 0.0727539 12 0.0727539C18.627 0.0727539 24 5.44475 24 12.0728Z" fill="#007DFC"/>
</g>
<defs>
<clipPath id="clip0_105_7045">
<rect width="24" height="24" fill="white"/>
</clipPath>
</defs>
</svg>
