<svg width="31" height="30" viewBox="0 0 31 30" fill="none" xmlns="http://www.w3.org/2000/svg">
<path d="M28.1562 4.21875H29.5625V5.15625H28.1562V4.21875ZM28.1562 24.8438H29.5625V25.7812H28.1562V24.8438ZM25.8125 27.1875H26.75V29.0625H25.8125V27.1875ZM4.25 27.1875H5.1875V29.0625H4.25V27.1875ZM8.9375 12.1875H8.46875V13.125H8.9375C9.05819 13.1196 9.17215 13.0679 9.25565 12.9805C9.33915 12.8932 9.38575 12.7771 9.38575 12.6562C9.38575 12.5354 9.33915 12.4193 9.25565 12.332C9.17215 12.2446 9.05819 12.1929 8.9375 12.1875ZM12.2188 12.1875H11.75V13.125H12.2188C12.3394 13.1196 12.4534 13.0679 12.5369 12.9805C12.6204 12.8932 12.667 12.7771 12.667 12.6562C12.667 12.5354 12.6204 12.4193 12.5369 12.332C12.4534 12.2446 12.3394 12.1929 12.2188 12.1875ZM8.9375 14.0625H8.46875V15H8.9375C9.05819 14.9946 9.17215 14.9429 9.25565 14.8555C9.33915 14.7682 9.38575 14.6521 9.38575 14.5312C9.38575 14.4104 9.33915 14.2943 9.25565 14.207C9.17215 14.1196 9.05819 14.0679 8.9375 14.0625ZM15.5 12.1875C15.2417 12.1875 15.0312 12.3975 15.0312 12.6562V13.5938H15.9688V12.6562C15.9688 12.3975 15.7583 12.1875 15.5 12.1875ZM3.78125 24.375H5.65625V26.25H3.78125V24.375ZM14.8372 21.0938C14.9745 21.0938 15.1072 21.0666 15.2319 21.0197L12.8998 18.6877L13.5603 22.9819C14.7599 23.0616 15.9094 23.4928 16.8655 24.2217L19.0967 21.9905C18.3678 21.0346 17.9366 19.8852 17.8569 18.6858L13.5622 18.0248L15.8947 20.3573C15.9411 20.2322 15.9688 20.1 15.9688 19.9627V19.688H16.9062V19.9627C16.9062 20.5153 16.6911 21.0347 16.3006 21.4256C15.9102 21.8166 15.3903 22.0317 14.8372 22.0317H14.5625V21.0942L14.8372 21.0938ZM17.0961 25.312L20.1828 22.2253L21.8633 23.9058L18.7766 26.9925L17.0961 25.312ZM3.78125 3.75H5.65625V5.625H3.78125V3.75Z" fill="white"/>
<path d="M25.8125 6.5625H24.875C24.7507 6.5625 24.6315 6.51311 24.5435 6.42521C24.4556 6.3373 24.4062 6.21807 24.4062 6.09375V5.15625H6.59375V6.09375C6.59375 6.21807 6.54436 6.3373 6.45646 6.42521C6.36855 6.51311 6.24932 6.5625 6.125 6.5625H5.1875V23.4375H6.125C6.24932 23.4375 6.36855 23.4869 6.45646 23.5748C6.54436 23.6627 6.59375 23.7819 6.59375 23.9062V24.8438H16.1248C15.2577 24.2381 14.2245 23.9062 13.1562 23.9062C13.0443 23.9062 12.9361 23.8661 12.8511 23.7932C12.7662 23.7203 12.7101 23.6194 12.6931 23.5088L11.7556 17.415C11.7446 17.3423 11.7508 17.268 11.7737 17.1981C11.7967 17.1282 11.8357 17.0647 11.8877 17.0127C11.9397 16.9607 12.0032 16.9217 12.0731 16.8987C12.143 16.8758 12.2173 16.8696 12.29 16.8806L18.3837 17.8181C18.4944 17.8351 18.5953 17.8912 18.6682 17.9761C18.7411 18.0611 18.7812 18.1693 18.7812 18.2812C18.7812 19.3781 19.1286 20.4398 19.7661 21.3211L19.8561 21.2311C19.8996 21.1875 19.9512 21.153 20.0081 21.1294C20.065 21.1058 20.1259 21.0937 20.1875 21.0937C20.2491 21.0937 20.31 21.1058 20.3669 21.1294C20.4238 21.153 20.4754 21.1875 20.5189 21.2311L22.8627 23.5748C22.9062 23.6183 22.9408 23.67 22.9644 23.7269C22.988 23.7837 23.0001 23.8447 23.0001 23.9062C23.0001 23.9678 22.988 24.0288 22.9644 24.0856C22.9408 24.1425 22.9062 24.1942 22.8627 24.2377L22.2566 24.8438H24.4062V23.9062C24.4062 23.7819 24.4556 23.6627 24.5435 23.5748C24.6315 23.4869 24.7507 23.4375 24.875 23.4375H25.8125V6.5625ZM10.3438 14.5312C10.3438 15.3066 9.71281 15.9375 8.9375 15.9375H8C7.87568 15.9375 7.75645 15.8881 7.66854 15.8002C7.58064 15.7123 7.53125 15.5931 7.53125 15.4688V11.7188C7.53125 11.5944 7.58064 11.4752 7.66854 11.3873C7.75645 11.2994 7.87568 11.25 8 11.25H8.9375C9.71281 11.25 10.3438 11.8809 10.3438 12.6562C10.3438 13.0163 10.2078 13.3448 9.98469 13.5938C10.2078 13.8427 10.3438 14.1713 10.3438 14.5312ZM13.625 15.8569V15.9375H12.6875V15.8569C12.6884 15.1964 12.4482 14.5584 12.012 14.0625H11.75V15.9375H10.8125V11.7188C10.8125 11.5944 10.8619 11.4752 10.9498 11.3873C11.0377 11.2994 11.1569 11.25 11.2812 11.25H12.2188C12.9941 11.25 13.625 11.8809 13.625 12.6562C13.625 13.1391 13.3803 13.5656 13.0081 13.8187C13.4122 14.4215 13.627 15.1312 13.625 15.8569ZM16.9062 15.9375H15.9688V14.5312H15.0312V15.9375H14.0938V12.6562C14.0938 11.8809 14.7247 11.25 15.5 11.25C16.2753 11.25 16.9062 11.8809 16.9062 12.6562V15.9375ZM20.1875 15.4688C20.1873 15.593 20.1378 15.7121 20.0499 15.7999C19.9621 15.8878 19.843 15.9373 19.7188 15.9375C19.6316 15.9375 19.5462 15.9133 19.4721 15.8675C19.398 15.8217 19.3382 15.7562 19.2992 15.6783L18.3125 13.7044V15.9375H17.375V11.7188C17.3752 11.6133 17.411 11.5109 17.4766 11.4283C17.5421 11.3456 17.6336 11.2875 17.7363 11.2632C17.8389 11.2389 17.9468 11.25 18.0424 11.2945C18.138 11.3391 18.2158 11.4145 18.2633 11.5087L19.25 13.4827V11.2495H20.1875V15.4688ZM23.4688 14.5312C23.4688 15.3066 22.8378 15.9375 22.0625 15.9375H21.125C21.0007 15.9375 20.8815 15.8881 20.7935 15.8002C20.7056 15.7123 20.6562 15.5931 20.6562 15.4688V11.7188C20.6562 11.5944 20.7056 11.4752 20.7935 11.3873C20.8815 11.2994 21.0007 11.25 21.125 11.25H22.0625C22.8378 11.25 23.4688 11.8809 23.4688 12.6562V14.5312ZM25.3438 24.375H27.2188V26.25H25.3438V24.375Z" fill="white"/>
<path d="M22.0625 12.1875H21.5938V15H22.0625C22.3208 15 22.5312 14.79 22.5312 14.5312V12.6562C22.5312 12.3975 22.3208 12.1875 22.0625 12.1875ZM25.3438 3.75H27.2188V5.625H25.3438V3.75ZM4.25 0.9375H5.1875V2.8125H4.25V0.9375ZM1.4375 4.21875H2.84375V5.15625H1.4375V4.21875ZM25.8125 0.9375H26.75V2.8125H25.8125V0.9375ZM1.4375 24.8438H2.84375V25.7812H1.4375V24.8438Z" fill="white"/>
</svg>
