<svg width="31" height="30" viewBox="0 0 31 30" fill="none" xmlns="http://www.w3.org/2000/svg">
<path d="M21.75 6.9875V3.75L25.5 0V5H30.5L26.75 8.75H23.5125L17.9 14.3625C17.95 14.5625 17.9875 14.775 17.9875 15C17.9875 16.375 16.8625 17.5 15.4875 17.5C14.1125 17.5 12.9875 16.375 12.9875 15C12.9875 13.625 14.1125 12.5 15.4875 12.5C15.7125 12.5 15.925 12.5375 16.125 12.5875L21.7375 6.975L21.75 6.9875ZM27.7875 11.25H26.1125C26.5125 12.4125 26.75 13.65 26.75 14.95C26.1875 29.9 4.8125 29.9 4.25 14.95C4.25 8.725 9.3 3.6625 15.5 3.6625C16.8125 3.6625 18.075 3.9 19.25 4.325V2.7125L20.9875 0.975C12.375 -2.2125 0.975 2.4375 0.5 14.95C0.5 23.25 7.225 30 15.5 30C23.775 30 30.5 23.25 30.5 14.95C30.425 12.95 30.0625 11.15 29.475 9.55L27.7875 11.2375V11.25ZM15.2375 9.9625L18.5 6.7C17.6125 6.3875 16.6125 6.2 15.5 6.175C3.9375 6.5375 3.9375 23.3625 15.5 23.7375C22.5875 23.5125 25.325 17.1 23.725 12.0875L20.4125 15.4C20.225 17.7125 18.6 19.8875 15.5 19.975C8.7875 19.825 8.2 10.45 15.225 9.975L15.2375 9.9625Z" fill="white"/>
</svg>
