<svg width="20" height="20" viewBox="0 0 20 20" fill="none" xmlns="http://www.w3.org/2000/svg">
<g clip-path="url(#clip0_96_372)">
<path d="M10 0C4.48583 0 0 4.48583 0 10C0 15.5142 4.48583 20 10 20C15.5142 20 20 15.5142 20 10C20 4.48583 15.5142 0 10 0ZM13.3333 10.8333H10C9.77899 10.8333 9.56702 10.7455 9.41074 10.5893C9.25446 10.433 9.16667 10.221 9.16667 10V5C9.16667 4.77899 9.25446 4.56702 9.41074 4.41074C9.56702 4.25446 9.77899 4.16667 10 4.16667C10.221 4.16667 10.433 4.25446 10.5893 4.41074C10.7455 4.56702 10.8333 4.77899 10.8333 5V9.16667H13.3333C13.5543 9.16667 13.7663 9.25446 13.9226 9.41074C14.0789 9.56702 14.1667 9.77899 14.1667 10C14.1667 10.221 14.0789 10.433 13.9226 10.5893C13.7663 10.7455 13.5543 10.8333 13.3333 10.8333Z" fill="white"/>
</g>
<defs>
<clipPath id="clip0_96_372">
<rect width="20" height="20" fill="white"/>
</clipPath>
</defs>
</svg>
