<svg width="16" height="16" viewBox="0 0 16 16" fill="none" xmlns="http://www.w3.org/2000/svg">
<g clip-path="url(#clip0_157_3916)">
<path d="M8.99969 7C8.9996 7.26531 8.89413 7.51971 8.70646 7.70724C8.5188 7.89478 8.26433 8.00009 7.99902 8C7.73372 7.99991 7.47932 7.89444 7.29178 7.70677C7.10424 7.51911 6.99894 7.26464 6.99902 6.99933C6.99911 6.73403 7.10459 6.47962 7.29225 6.29209C7.47991 6.10455 7.73439 5.99924 7.99969 5.99933C8.265 5.99942 8.5194 6.1049 8.70694 6.29256C8.89447 6.48022 8.99978 6.7347 8.99969 7ZM11.333 6C11.0677 6.00009 10.8133 6.10557 10.6258 6.29323C10.4382 6.48089 10.3329 6.73536 10.333 7.00067C10.3331 7.26597 10.4386 7.52038 10.6263 7.70791C10.8139 7.89545 11.0684 8.00076 11.3337 8.00067C11.4651 8.00062 11.5951 7.97471 11.7165 7.92439C11.8378 7.87408 11.9481 7.80036 12.0409 7.70744C12.1338 7.61452 12.2074 7.50422 12.2577 7.38284C12.3079 7.26145 12.3337 7.13137 12.3337 7C12.3336 6.86863 12.3077 6.73856 12.2574 6.61721C12.2071 6.49587 12.1334 6.38561 12.0405 6.29276C11.9475 6.1999 11.8372 6.12625 11.7159 6.07602C11.5945 6.02579 11.4644 5.99996 11.333 6ZM4.66636 6C4.40105 6.00009 4.14665 6.10557 3.95911 6.29323C3.77158 6.48089 3.66627 6.73536 3.66636 7.00067C3.66645 7.26597 3.77192 7.52038 3.95958 7.70791C4.14725 7.89545 4.40172 8.00076 4.66702 8.00067C4.93233 8.00058 5.18673 7.8951 5.37427 7.70744C5.56181 7.51978 5.66711 7.26531 5.66702 7C5.66694 6.7347 5.56146 6.48029 5.3738 6.29276C5.18614 6.10522 4.93166 5.99991 4.66636 6ZM15.9997 2.66667V10.6667C15.9997 12.1373 14.8037 13.3333 13.333 13.3333H11.4317L8.86636 15.4533C8.62865 15.6631 8.32203 15.7779 8.00502 15.776C7.67653 15.7764 7.35933 15.6561 7.11369 15.438L4.61436 13.3333H2.66569C1.19502 13.3333 -0.000976562 12.1373 -0.000976562 10.6667V2.66667C8.18523e-05 1.95963 0.281465 1.28187 0.781477 0.781982C1.28149 0.282095 1.95932 0.000881678 2.66636 0L13.333 0C14.8037 0 15.9997 1.196 15.9997 2.66667ZM14.6664 2.66667C14.6664 1.93133 14.0684 1.33333 13.333 1.33333H2.66636C1.93102 1.33333 1.33302 1.93133 1.33302 2.66667V10.6667C1.33302 11.402 1.93102 12 2.66636 12H4.85836C5.01502 12 5.16769 12.0553 5.28836 12.1567L7.98702 14.43L10.7677 12.1527C10.8872 12.0539 11.0373 11.9999 11.1924 12H13.3337C14.069 12 14.667 11.402 14.667 10.6667L14.6664 2.66667Z" fill="black"/>
</g>
<defs>
<clipPath id="clip0_157_3916">
<rect width="16" height="16" fill="white"/>
</clipPath>
</defs>
</svg>
