<svg width="24" height="19" viewBox="0 0 24 19" fill="none" xmlns="http://www.w3.org/2000/svg">
<path d="M1.60156 12.2578V5.04687C1.01563 4.75781 0.625 4.15625 0.625 3.46094C0.625 2.49219 1.39844 1.70312 2.375 1.70312C3.35156 1.70312 4.14062 2.49219 4.14062 3.46875C4.14062 3.72656 4.08594 3.98437 3.97656 4.21875L8.10156 8.67969L10.6484 3.58594C10.3828 3.27344 10.2344 2.875 10.2344 2.45312C10.2344 1.48438 11.0234 0.695312 12 0.695312C12.9766 0.695312 13.7656 1.48438 13.7656 2.45312C13.7656 2.875 13.6094 3.27344 13.3516 3.58594L15.8984 8.67969L20.0312 4.21875C19.9219 3.98437 19.8672 3.72656 19.8672 3.46875C19.8672 2.49219 20.6562 1.70312 21.6328 1.70312C22.6094 1.70312 23.3984 2.49219 23.3984 3.46875C23.3984 4.15625 23 4.75781 22.4219 5.04687V12.2656H1.60156V12.2578ZM22.9844 13.7187H1.01563C0.609375 13.7187 0.28125 14.0469 0.28125 14.4531V17.5859C0.28125 17.9922 0.609375 18.3203 1.01563 18.3203H22.9922C23.3984 18.3203 23.7266 17.9922 23.7266 17.5859V14.4531C23.7188 14.0469 23.3906 13.7187 22.9844 13.7187Z" fill="white"/>
</svg>
