<svg width="182" height="50" viewBox="0 0 182 50" fill="none" xmlns="http://www.w3.org/2000/svg">
<path d="M28.5004 49.8141C56.3622 45.8339 56.3628 4.22814 28.5005 0.247802C45.2464 12.2671 45.2011 37.7896 28.5004 49.8141Z" fill="#007DFC"/>
<path d="M17.4721 48.8229C19.2069 49.3805 20.9417 49.7523 22.8004 49.8762C37.1992 36.6663 37.2086 13.3315 22.8005 0.124023C20.9417 0.309896 19.1449 0.681644 17.4721 1.17731C29.5684 14.457 29.5645 35.5476 17.4721 48.8229Z" fill="#007DFC"/>
<path d="M11.0282 45.725C22.772 34.641 22.8835 15.3932 11.0282 4.33716C-3.44124 13.9835 -3.44733 36.0746 11.0282 45.725Z" fill="#007DFC"/>
<path d="M77.431 16.987C72.936 16.987 70.363 20.242 70.363 25.14C70.363 30.193 73.277 32.952 77.462 32.952C81.399 32.952 83.786 30.782 83.786 27.155V27.062H76.935V23.559H87.475V36.3H84.127L83.879 33.696C82.639 35.432 80.066 36.641 76.997 36.641C70.642 36.641 66.209 32.022 66.209 25.047C66.209 18.165 70.704 13.267 77.524 13.267C82.701 13.267 86.7 16.274 87.351 20.893H83.166C82.453 18.227 80.159 16.987 77.431 16.987ZM100.812 20.924V24.427H99.417C96.689 24.427 94.984 25.884 94.984 28.86V36.3H91.202V21.017H94.767L94.984 23.249C95.635 21.73 97.092 20.707 99.138 20.707C99.665 20.707 100.192 20.769 100.812 20.924ZM107.323 36.703C104.068 36.703 102.084 34.812 102.084 31.929C102.084 29.108 104.13 27.341 107.757 27.062L112.345 26.721V26.38C112.345 24.303 111.105 23.466 109.183 23.466C106.951 23.466 105.711 24.396 105.711 26.008H102.487C102.487 22.691 105.215 20.521 109.369 20.521C113.492 20.521 116.034 22.753 116.034 27V36.3H112.717L112.438 34.037C111.787 35.618 109.71 36.703 107.323 36.703ZM108.563 33.851C110.888 33.851 112.376 32.456 112.376 30.1V29.294L109.183 29.542C106.827 29.759 105.928 30.534 105.928 31.774C105.928 33.169 106.858 33.851 108.563 33.851ZM119.75 43.399V20.986H123.253L123.501 23.311C124.431 21.544 126.446 20.521 128.771 20.521C133.08 20.521 135.932 23.652 135.932 28.457C135.932 33.231 133.328 36.703 128.771 36.703C126.477 36.703 124.493 35.804 123.532 34.254V43.399H119.75ZM123.563 28.643C123.563 31.402 125.268 33.293 127.872 33.293C130.538 33.293 132.119 31.371 132.119 28.643C132.119 25.915 130.538 23.962 127.872 23.962C125.268 23.962 123.563 25.884 123.563 28.643ZM142.725 36.3H138.943V13.236H142.756V22.97C143.717 21.482 145.515 20.521 147.716 20.521C151.498 20.521 153.482 22.908 153.482 26.876V36.3H149.7V27.775C149.7 25.202 148.429 23.962 146.507 23.962C144.12 23.962 142.725 25.636 142.725 27.93V36.3ZM156.299 28.612C156.299 23.838 159.74 20.552 164.483 20.552C169.226 20.552 172.667 23.838 172.667 28.612C172.667 33.386 169.226 36.672 164.483 36.672C159.74 36.672 156.299 33.386 156.299 28.612ZM160.081 28.612C160.081 31.402 161.879 33.293 164.483 33.293C167.087 33.293 168.885 31.402 168.885 28.612C168.885 25.822 167.087 23.931 164.483 23.931C161.879 23.931 160.081 25.822 160.081 28.612Z" fill="#1D1F17"/>
</svg>
