<svg width="20" height="20" viewBox="0 0 20 20" fill="none" xmlns="http://www.w3.org/2000/svg">
<g clip-path="url(#clip0_96_385)">
<path d="M10 12.0508C11.1326 12.0508 12.0508 11.1326 12.0508 10C12.0508 8.86738 11.1326 7.94922 10 7.94922C8.86738 7.94922 7.94922 8.86738 7.94922 10C7.94922 11.1326 8.86738 12.0508 10 12.0508Z" fill="white"/>
<path d="M10 0.234375C4.6066 0.234375 0.234375 4.6066 0.234375 10C0.234375 15.3934 4.6066 19.7656 10 19.7656C15.3934 19.7656 19.7656 15.3934 19.7656 10C19.7656 4.6066 15.3934 0.234375 10 0.234375ZM16.0335 12.482C15.9866 13.4105 15.7257 14.326 15.0491 14.9954C14.366 15.6712 13.4461 15.923 12.5087 15.9694H7.49133C6.55383 15.923 5.63406 15.6714 4.9509 14.9954C4.27426 14.326 4.0134 13.4105 3.96652 12.482V7.51797C4.0134 6.58953 4.2743 5.67398 4.9509 5.00453C5.63406 4.32875 6.55395 4.07695 7.49133 4.03059H12.5087C13.4462 4.07695 14.3659 4.32863 15.0491 5.00453C15.7257 5.67398 15.9866 6.58953 16.0335 7.51797L16.0335 12.482Z" fill="white"/>
<path d="M12.4453 5.16164C11.2232 5.12813 8.77709 5.12813 7.55498 5.16164C6.919 5.1791 6.19802 5.33742 5.7449 5.82141C5.27404 6.32449 5.09611 6.93231 5.07806 7.61227C5.04634 8.8057 5.07806 12.3877 5.07806 12.3877C5.09873 13.0676 5.27404 13.6755 5.7449 14.1786C6.19802 14.6627 6.919 14.8209 7.55498 14.8384C8.77709 14.8719 11.2232 14.8719 12.4453 14.8384C13.0813 14.8209 13.8022 14.6626 14.2554 14.1786C14.7262 13.6755 14.9042 13.0677 14.9222 12.3877V7.61227C14.9042 6.93231 14.7262 6.32449 14.2554 5.82141C13.8021 5.33727 13.0811 5.1791 12.4453 5.16164ZM9.99998 13.1787C9.37129 13.1787 8.75672 12.9923 8.23398 12.643C7.71124 12.2937 7.30382 11.7973 7.06323 11.2164C6.82264 10.6356 6.75969 9.99648 6.88234 9.37987C7.00499 8.76326 7.30774 8.19686 7.75229 7.75231C8.19684 7.30776 8.76323 7.00502 9.37984 6.88237C9.99645 6.75972 10.6356 6.82267 11.2164 7.06326C11.7972 7.30384 12.2937 7.71127 12.643 8.234C12.9923 8.75674 13.1787 9.37131 13.1787 10C13.1787 10.843 12.8438 11.6516 12.2477 12.2477C11.6515 12.8438 10.843 13.1787 9.99998 13.1787ZM13.1922 7.47742C13.0665 7.47739 12.9436 7.44008 12.839 7.37021C12.7345 7.30033 12.6531 7.20103 12.605 7.08486C12.5569 6.96869 12.5443 6.84087 12.5689 6.71756C12.5934 6.59425 12.654 6.48098 12.7429 6.39209C12.8318 6.30319 12.9451 6.24266 13.0684 6.21814C13.1917 6.19363 13.3195 6.20622 13.4357 6.25435C13.5518 6.30247 13.6511 6.38395 13.721 6.4885C13.7908 6.59304 13.8281 6.71595 13.8281 6.84168C13.8281 6.92518 13.8117 7.00786 13.7797 7.08501C13.7477 7.16215 13.7009 7.23224 13.6418 7.29127C13.5828 7.35031 13.5127 7.39713 13.4355 7.42907C13.3584 7.46101 13.2757 7.47744 13.1922 7.47742Z" fill="white"/>
</g>
<defs>
<clipPath id="clip0_96_385">
<rect width="20" height="20" fill="white"/>
</clipPath>
</defs>
</svg>
