<svg width="18" height="17" viewBox="0 0 18 17" fill="none" xmlns="http://www.w3.org/2000/svg">
<path d="M13.1247 0.437744C12.2802 0.45088 11.4541 0.686634 10.7298 1.1212C10.0055 1.55576 9.40874 2.17375 8.99972 2.91274C8.5907 2.17375 7.99392 1.55576 7.26965 1.1212C6.54538 0.686634 5.71926 0.45088 4.87472 0.437744C3.52843 0.496237 2.26 1.08518 1.34656 2.07592C0.433119 3.06665 -0.0510883 4.37864 -0.000275423 5.72524C-0.000275423 9.13549 3.58922 12.86 6.59972 15.3852C7.27189 15.9501 8.12174 16.2598 8.99972 16.2598C9.87771 16.2598 10.7276 15.9501 11.3997 15.3852C14.4102 12.86 17.9997 9.13549 17.9997 5.72524C18.0505 4.37864 17.5663 3.06665 16.6529 2.07592C15.7394 1.08518 14.471 0.496237 13.1247 0.437744ZM10.436 14.2377C10.034 14.5763 9.52529 14.7619 8.99972 14.7619C8.47416 14.7619 7.96549 14.5763 7.56347 14.2377C3.70997 11.0045 1.49972 7.90249 1.49972 5.72524C1.44845 4.77628 1.7745 3.84554 2.40675 3.13602C3.03899 2.4265 3.92615 1.99576 4.87472 1.93774C5.8233 1.99576 6.71045 2.4265 7.3427 3.13602C7.97495 3.84554 8.30099 4.77628 8.24972 5.72524C8.24972 5.92416 8.32874 6.11492 8.46939 6.25557C8.61005 6.39623 8.80081 6.47524 8.99972 6.47524C9.19864 6.47524 9.3894 6.39623 9.53005 6.25557C9.67071 6.11492 9.74972 5.92416 9.74972 5.72524C9.69845 4.77628 10.0245 3.84554 10.6567 3.13602C11.289 2.4265 12.1761 1.99576 13.1247 1.93774C14.0733 1.99576 14.9605 2.4265 15.5927 3.13602C16.2249 3.84554 16.551 4.77628 16.4997 5.72524C16.4997 7.90249 14.2895 11.0045 10.436 14.2347V14.2377Z" fill="#1D1F17"/>
</svg>
