<svg width="174" height="50" viewBox="0 0 174 50" fill="none" xmlns="http://www.w3.org/2000/svg">
<path d="M28.5004 49.8143C56.3622 45.8341 56.3628 4.22838 28.5005 0.248046C45.2464 12.2673 45.2011 37.7899 28.5004 49.8143Z" fill="#007DFC"/>
<path d="M17.4721 48.8229C19.2069 49.3805 20.9417 49.7523 22.8004 49.8762C37.1992 36.6663 37.2086 13.3315 22.8005 0.124023C20.9417 0.309896 19.1449 0.681644 17.4721 1.17731C29.5684 14.457 29.5645 35.5476 17.4721 48.8229Z" fill="#007DFC"/>
<path d="M11.0282 45.7248C22.772 34.6408 22.8835 15.393 11.0282 4.33691C-3.44124 13.9832 -3.44733 36.0744 11.0282 45.7248Z" fill="#007DFC"/>
<path d="M77.431 17.687C72.936 17.687 70.363 20.942 70.363 25.84C70.363 30.893 73.277 33.652 77.462 33.652C81.399 33.652 83.786 31.482 83.786 27.855V27.762H76.935V24.259H87.475V37H84.127L83.879 34.396C82.639 36.132 80.066 37.341 76.997 37.341C70.642 37.341 66.209 32.722 66.209 25.747C66.209 18.865 70.704 13.967 77.524 13.967C82.701 13.967 86.7 16.974 87.351 21.593H83.166C82.453 18.927 80.159 17.687 77.431 17.687ZM100.812 21.624V25.127H99.417C96.689 25.127 94.984 26.584 94.984 29.56V37H91.202V21.717H94.767L94.984 23.949C95.635 22.43 97.092 21.407 99.138 21.407C99.665 21.407 100.192 21.469 100.812 21.624ZM107.323 37.403C104.068 37.403 102.084 35.512 102.084 32.629C102.084 29.808 104.13 28.041 107.757 27.762L112.345 27.421V27.08C112.345 25.003 111.105 24.166 109.183 24.166C106.951 24.166 105.711 25.096 105.711 26.708H102.487C102.487 23.391 105.215 21.221 109.369 21.221C113.492 21.221 116.034 23.453 116.034 27.7V37H112.717L112.438 34.737C111.787 36.318 109.71 37.403 107.323 37.403ZM108.563 34.551C110.888 34.551 112.376 33.156 112.376 30.8V29.994L109.183 30.242C106.827 30.459 105.928 31.234 105.928 32.474C105.928 33.869 106.858 34.551 108.563 34.551ZM119.75 44.099V21.686H123.253L123.501 24.011C124.431 22.244 126.446 21.221 128.771 21.221C133.08 21.221 135.932 24.352 135.932 29.157C135.932 33.931 133.328 37.403 128.771 37.403C126.477 37.403 124.493 36.504 123.532 34.954V44.099H119.75ZM123.563 29.343C123.563 32.102 125.268 33.993 127.872 33.993C130.538 33.993 132.119 32.071 132.119 29.343C132.119 26.615 130.538 24.662 127.872 24.662C125.268 24.662 123.563 26.584 123.563 29.343ZM142.725 37H138.943V13.936H142.756V23.67C143.717 22.182 145.515 21.221 147.716 21.221C151.498 21.221 153.482 23.608 153.482 27.576V37H149.7V28.475C149.7 25.902 148.429 24.662 146.507 24.662C144.12 24.662 142.725 26.336 142.725 28.63V37ZM156.299 29.312C156.299 24.538 159.74 21.252 164.483 21.252C169.226 21.252 172.667 24.538 172.667 29.312C172.667 34.086 169.226 37.372 164.483 37.372C159.74 37.372 156.299 34.086 156.299 29.312ZM160.081 29.312C160.081 32.102 161.879 33.993 164.483 33.993C167.087 33.993 168.885 32.102 168.885 29.312C168.885 26.522 167.087 24.631 164.483 24.631C161.879 24.631 160.081 26.522 160.081 29.312Z" fill="white"/>
</svg>
