<svg width="20" height="20" viewBox="0 0 20 20" fill="none" xmlns="http://www.w3.org/2000/svg">
<path d="M19.9617 4.61833L12.9467 11.6333C12.1645 12.4135 11.1048 12.8517 10 12.8517C8.89521 12.8517 7.83552 12.4135 7.05333 11.6333L0.0383333 4.61833C0.0266667 4.75 0 4.86917 0 5V15C0.00132321 16.1047 0.440735 17.1637 1.22185 17.9448C2.00296 18.7259 3.062 19.1653 4.16667 19.1667H15.8333C16.938 19.1653 17.997 18.7259 18.7782 17.9448C19.5593 17.1637 19.9987 16.1047 20 15V5C20 4.86917 19.9733 4.75 19.9617 4.61833Z" fill="white"/>
<path d="M11.7683 10.455L19.38 2.84249C19.0113 2.23109 18.4912 1.72503 17.87 1.3731C17.2487 1.02118 16.5473 0.835279 15.8333 0.833328H4.16666C3.45268 0.835279 2.75125 1.02118 2.13002 1.3731C1.50879 1.72503 0.988727 2.23109 0.619995 2.84249L8.23166 10.455C8.7013 10.9228 9.33715 11.1854 10 11.1854C10.6628 11.1854 11.2987 10.9228 11.7683 10.455Z" fill="white"/>
</svg>
