<svg width="20" height="20" viewBox="0 0 20 20" fill="none" xmlns="http://www.w3.org/2000/svg">
<g clip-path="url(#clip0_96_390)">
<path d="M11.2808 10C11.2808 13.1367 8.75583 15.6792 5.64 15.6792C2.525 15.6792 0 13.1367 0 10C0 6.86333 2.525 4.32083 5.64083 4.32083C8.75583 4.32083 11.2808 6.86333 11.2808 10ZM17.4692 10C17.4692 12.9525 16.2067 15.3458 14.6492 15.3458C13.0917 15.3458 11.8292 12.9525 11.8292 10C11.8292 7.0475 13.0917 4.65416 14.6492 4.65416C16.2058 4.65416 17.4692 7.0475 17.4692 10ZM20 10C20 12.645 19.5558 14.79 19.0083 14.79C18.4608 14.79 18.0167 12.6458 18.0167 10C18.0167 7.35417 18.4608 5.21 19.0083 5.21C19.5558 5.21 20 7.355 20 10Z" fill="white"/>
</g>
<defs>
<clipPath id="clip0_96_390">
<rect width="20" height="20" fill="white"/>
</clipPath>
</defs>
</svg>
