<svg width="23" height="30" viewBox="0 0 23 30" fill="none" xmlns="http://www.w3.org/2000/svg">
<path d="M6.99811 6.465H15.472C15.9574 6.465 16.3509 6.07131 16.3509 5.58609C16.3509 5.50992 16.3413 5.43615 16.3232 5.3659L15.3912 0.706523C15.3514 0.507307 15.2437 0.328047 15.0866 0.199237C14.9295 0.0704269 14.7326 2.24638e-05 14.5295 0L7.93948 0C7.73631 2.51734e-05 7.53942 0.0704379 7.38231 0.19926C7.2252 0.328081 7.11758 0.507355 7.07774 0.706582L6.13638 5.41377C6.11089 5.54126 6.11401 5.67282 6.14551 5.79895C6.17701 5.92509 6.23611 6.04267 6.31854 6.1432C6.40094 6.24379 6.50464 6.32483 6.62216 6.38048C6.73968 6.43613 6.86809 6.465 6.99811 6.465Z" fill="white"/>
<path d="M19.2363 3.76562H17.7955L18.0398 4.98689C18.0856 5.18335 18.1087 5.38441 18.1087 5.58613C18.1087 7.03996 16.9258 8.22285 15.4708 8.22285H6.99809C6.20496 8.22285 5.46176 7.87105 4.9592 7.25787C4.45635 6.64445 4.25695 5.84658 4.41264 5.0691L4.67332 3.76586H3.2325C1.4502 3.76586 0 5.21582 0 6.99813V26.7678C0 28.5501 1.4502 30 3.2325 30H19.2364C21.0187 30 22.4689 28.5501 22.4689 26.7678V6.99813C22.4689 5.21582 21.0187 3.76562 19.2364 3.76562H19.2363ZM5.58615 10.2929H12.1758C12.6612 10.2929 13.0547 10.6865 13.0547 11.1718C13.0547 11.6572 12.6612 12.0507 12.1758 12.0507H5.58609C5.10064 12.0507 4.70719 11.6572 4.70719 11.1718C4.70719 10.6865 5.1007 10.2929 5.58615 10.2929ZM6.46482 15.8787C6.46482 16.1102 6.37096 16.3369 6.2076 16.5004C6.04228 16.6646 5.81891 16.757 5.58592 16.7576C5.35308 16.7569 5.1299 16.6645 4.96471 16.5004C4.80052 16.3351 4.7081 16.1117 4.70748 15.8787C4.70748 15.6473 4.80129 15.4212 4.96471 15.2576C5.12972 15.0931 5.35297 15.0005 5.58592 14.9998C5.81736 14.9998 6.04412 15.0937 6.2076 15.2576C6.37171 15.4227 6.46413 15.6459 6.46482 15.8787ZM6.2076 25.9147C6.04239 26.0788 5.81921 26.1711 5.58639 26.1718C5.35341 26.1712 5.13004 26.0788 4.96471 25.9147C4.80129 25.7506 4.70701 25.5245 4.70701 25.2929C4.70701 25.0617 4.80135 24.8353 4.96471 24.6715C5.12993 24.5071 5.35333 24.4146 5.58639 24.4139C5.81731 24.4139 6.04412 24.5078 6.20754 24.6715C6.37161 24.8367 6.46403 25.06 6.46482 25.2929C6.46482 25.5245 6.37096 25.7506 6.2076 25.9147ZM6.2076 21.2073C6.04245 21.3718 5.81902 21.4644 5.58592 21.465C5.35297 21.4643 5.12972 21.3717 4.96471 21.2073C4.80019 21.0424 4.70755 20.8191 4.70701 20.5861C4.70701 20.3547 4.80064 20.1279 4.96471 19.9645C5.1299 19.8004 5.35308 19.7079 5.58592 19.7072C5.81736 19.7072 6.04412 19.801 6.2076 19.9645C6.37191 20.1297 6.4645 20.3531 6.46529 20.5861C6.46529 20.8171 6.37102 21.0439 6.2076 21.2073ZM16.8828 26.1718H10.2931C9.80766 26.1718 9.4142 25.7783 9.4142 25.2929C9.4142 24.8076 9.80766 24.4139 10.2931 24.4139H16.8829C17.3683 24.4139 17.7618 24.8076 17.7618 25.2929C17.7618 25.7783 17.3683 26.1718 16.8829 26.1718H16.8828ZM16.8828 21.4648H10.2931C9.80766 21.4648 9.4142 21.0713 9.4142 20.5859C9.4142 20.1007 9.80766 19.707 10.2931 19.707H16.8829C17.3683 19.707 17.7618 20.1007 17.7618 20.5859C17.7618 21.0713 17.3683 21.4648 16.8829 21.4648H16.8828ZM16.8828 16.7579H10.2931C9.80766 16.7579 9.4142 16.3644 9.4142 15.8789C9.4142 15.3935 9.80766 15 10.2931 15H16.8829C17.3683 15 17.7618 15.3935 17.7618 15.8789C17.7618 16.3644 17.3683 16.7579 16.8829 16.7579H16.8828Z" fill="white"/>
</svg>
