<svg width="31" height="30" viewBox="0 0 31 30" fill="none" xmlns="http://www.w3.org/2000/svg">
<path d="M29.25 20C29.0565 20 28.8657 19.9551 28.6925 19.8688L26.1925 18.6188C25.8958 18.4706 25.6701 18.2106 25.5651 17.896C25.4601 17.5814 25.4843 17.238 25.6325 16.9412C25.7807 16.6445 26.0407 16.4188 26.3553 16.3138C26.6699 16.2088 27.0133 16.2331 27.31 16.3812L29.81 17.6312C30.0623 17.757 30.2647 17.9644 30.3843 18.2197C30.504 18.475 30.5338 18.7632 30.4689 19.0376C30.404 19.312 30.2483 19.5563 30.027 19.7311C29.8058 19.9058 29.5319 20.0005 29.25 20ZM27.3088 8.625L29.8088 7.375C30.1055 7.22681 30.3312 6.96682 30.4362 6.65223C30.5412 6.33764 30.5169 5.99421 30.3688 5.6975C30.2206 5.40079 29.9606 5.1751 29.646 5.07008C29.3314 4.96506 28.988 4.98931 28.6913 5.1375L26.1913 6.3875C25.8945 6.53569 25.6689 6.79568 25.5638 7.11027C25.4588 7.42486 25.4831 7.76829 25.6313 8.065C25.7794 8.36171 26.0394 8.5874 26.354 8.69242C26.6686 8.79744 27.012 8.77319 27.3088 8.625ZM30.5 12.5C30.5 12.1685 30.3683 11.8505 30.1339 11.6161C29.8995 11.3817 29.5815 11.25 29.25 11.25H26.75C26.4185 11.25 26.1005 11.3817 25.8661 11.6161C25.6317 11.8505 25.5 12.1685 25.5 12.5C25.5 12.8315 25.6317 13.1495 25.8661 13.3839C26.1005 13.6183 26.4185 13.75 26.75 13.75H29.25C29.5815 13.75 29.8995 13.6183 30.1339 13.3839C30.3683 13.1495 30.5 12.8315 30.5 12.5ZM23 23.75V1.25C23 0.918479 22.8683 0.600537 22.6339 0.366117C22.3995 0.131696 22.0815 0 21.75 0C21.4185 0 21.1005 0.131696 20.8661 0.366117C20.6317 0.600537 20.5 0.918479 20.5 1.25C20.5 4.93625 17.2713 6.25 14.25 6.25H5.5C4.17392 6.25 2.90215 6.77678 1.96447 7.71447C1.02678 8.65215 0.5 9.92392 0.5 11.25L0.5 13.75C0.5 15.0761 1.02678 16.3479 1.96447 17.2855C2.90215 18.2232 4.17392 18.75 5.5 18.75H14.25C17.2713 18.75 20.5 20.0637 20.5 23.75C20.5 24.0815 20.6317 24.3995 20.8661 24.6339C21.1005 24.8683 21.4185 25 21.75 25C22.0815 25 22.3995 24.8683 22.6339 24.6339C22.8683 24.3995 23 24.0815 23 23.75ZM10.7325 21.25H5.5C4.91802 21.2477 4.33828 21.1776 3.7725 21.0413L6.8975 28.0188C7.15995 28.6085 7.58773 29.1095 8.12905 29.4611C8.67036 29.8128 9.302 29.9999 9.9475 30C10.4611 29.9993 10.9663 29.8701 11.4171 29.6242C11.868 29.3782 12.2501 29.0234 12.5287 28.5919C12.8073 28.1605 12.9735 27.6662 13.0122 27.1541C13.0508 26.642 12.9607 26.1284 12.75 25.66L10.7325 21.25Z" fill="white"/>
</svg>
