<svg width="30" height="30" viewBox="0 0 30 30" fill="none" xmlns="http://www.w3.org/2000/svg">
<path d="M15 2.5C8.1125 2.5 2.5 8.1125 2.5 15C2.5 21.8875 8.1125 27.5 15 27.5C21.8875 27.5 27.5 21.8875 27.5 15C27.5 8.1125 21.8875 2.5 15 2.5ZM18.4875 15.6625L14.075 20.075C13.8875 20.2625 13.65 20.35 13.4125 20.35C13.175 20.35 12.9375 20.2625 12.75 20.075C12.5756 19.8986 12.4779 19.6605 12.4779 19.4125C12.4779 19.1645 12.5756 18.9264 12.75 18.75L16.5 15L12.75 11.25C12.3875 10.8875 12.3875 10.2875 12.75 9.925C13.1125 9.5625 13.7125 9.5625 14.075 9.925L18.4875 14.3375C18.8625 14.7 18.8625 15.3 18.4875 15.6625Z" fill="#007DFC"/>
</svg>
