<svg width="20" height="20" viewBox="0 0 20 20" fill="none" xmlns="http://www.w3.org/2000/svg">
<path d="M4.60082 16.5831H9.03582L11.9683 19.5123C12.1259 19.6707 12.3133 19.7965 12.5197 19.8823C12.726 19.9681 12.9473 20.0123 13.1708 20.0123C13.3179 20.012 13.4643 19.9933 13.6067 19.9564C13.8944 19.8838 14.1578 19.7367 14.3706 19.5298C14.5833 19.3229 14.7377 19.0637 14.8183 18.7781L19.9908 1.18727L4.60082 16.5831ZM3.40582 15.4164L18.81 0.00976562L1.23165 5.19393C0.945434 5.27533 0.68547 5.43014 0.477551 5.64302C0.269633 5.8559 0.120988 6.11944 0.0463617 6.4075C-0.0282642 6.69556 -0.0262769 6.99813 0.0521265 7.28518C0.13053 7.57224 0.282625 7.8338 0.493321 8.04393L3.40582 10.9539V15.4164Z" fill="white"/>
</svg>
