<svg width="24" height="24" viewBox="0 0 24 24" fill="none" xmlns="http://www.w3.org/2000/svg">
<path d="M24 3V10C24 10.2652 23.8946 10.5196 23.7071 10.7071C23.5196 10.8946 23.2652 11 23 11C22.7348 11 22.4804 10.8946 22.2929 10.7071C22.1054 10.5196 22 10.2652 22 10V3.414L10.207 15.207C10.1143 15.3002 10.0042 15.3741 9.88285 15.4246C9.76152 15.4751 9.63141 15.501 9.5 15.501C9.36859 15.501 9.23848 15.4751 9.11715 15.4246C8.99581 15.3741 8.88565 15.3002 8.793 15.207C8.70005 15.1142 8.62632 15.004 8.57601 14.8827C8.52569 14.7614 8.4998 14.6313 8.4998 14.5C8.4998 14.3687 8.52569 14.2386 8.57601 14.1173C8.62632 13.996 8.70005 13.8858 8.793 13.793L20.586 2H14C13.7348 2 13.4804 1.89464 13.2929 1.70711C13.1054 1.51957 13 1.26522 13 1C13 0.734784 13.1054 0.48043 13.2929 0.292893C13.4804 0.105357 13.7348 0 14 0L21 0C22.654 0 24 1.346 24 3ZM23 14C22.7348 14 22.4804 14.1054 22.2929 14.2929C22.1054 14.4804 22 14.7348 22 15V19C22 20.654 20.654 22 19 22H5C3.346 22 2 20.654 2 19V5C2 3.346 3.346 2 5 2H9C9.26522 2 9.51957 1.89464 9.70711 1.70711C9.89464 1.51957 10 1.26522 10 1C10 0.734784 9.89464 0.48043 9.70711 0.292893C9.51957 0.105357 9.26522 0 9 0L5 0C2.243 0 0 2.243 0 5V19C0 21.757 2.243 24 5 24H19C21.757 24 24 21.757 24 19V15C24 14.7348 23.8946 14.4804 23.7071 14.2929C23.5196 14.1054 23.2652 14 23 14Z" fill="#007DFC"/>
</svg>
