<svg width="31" height="24" viewBox="0 0 31 24" fill="none" xmlns="http://www.w3.org/2000/svg">
<path d="M20.31 17C19.9466 16.9999 19.5876 17.0791 19.258 17.2319C18.9283 17.3848 18.636 17.6076 18.4013 17.885L18.0925 18.25H12.9062L12.5988 17.885C12.3639 17.6075 12.0713 17.3845 11.7414 17.2317C11.4116 17.0788 11.0523 16.9998 10.6888 17H3.625C2.7962 17 2.00134 17.3292 1.41529 17.9153C0.82924 18.5013 0.5 19.2962 0.5 20.125C0.5 20.9538 0.82924 21.7487 1.41529 22.3347C2.00134 22.9208 2.7962 23.25 3.625 23.25H27.375C27.7854 23.25 28.1917 23.1692 28.5709 23.0121C28.95 22.8551 29.2945 22.6249 29.5847 22.3347C29.8749 22.0445 30.1051 21.7 30.2621 21.3209C30.4192 20.9417 30.5 20.5354 30.5 20.125C30.5 19.7146 30.4192 19.3083 30.2621 18.9291C30.1051 18.55 29.8749 18.2055 29.5847 17.9153C29.2945 17.6251 28.95 17.3949 28.5709 17.2379C28.1917 17.0808 27.7854 17 27.375 17H20.31ZM4.25 14.5H10.6888C11.9081 14.4982 13.086 14.9428 14 15.75H17C17.9138 14.9441 19.0904 14.4996 20.3088 14.5H26.75C27.1703 14.5029 27.5891 14.549 28 14.6375V7C27.998 5.34301 27.3389 3.75445 26.1672 2.58277C24.9956 1.4111 23.407 0.751985 21.75 0.75H9.25C7.59301 0.751985 6.00445 1.4111 4.83278 2.58277C3.6611 3.75445 3.00198 5.34301 3 7V14.6375C3.41086 14.549 3.82972 14.5029 4.25 14.5Z" fill="white"/>
</svg>
