<svg width="31" height="30" viewBox="0 0 31 30" fill="none" xmlns="http://www.w3.org/2000/svg">
<path d="M21.4813 3.09241L23.025 0.579912C23.1107 0.439815 23.2231 0.318022 23.356 0.221532C23.4888 0.125041 23.6395 0.0557555 23.7992 0.0176559C23.9589 -0.0204436 24.1246 -0.0266059 24.2867 -0.00047682C24.4488 0.0256523 24.6041 0.0835576 24.7438 0.169912C24.8837 0.255665 25.0054 0.3682 25.1018 0.501066C25.1982 0.633932 25.2674 0.784515 25.3055 0.944186C25.3436 1.10386 25.3498 1.26947 25.3238 1.43155C25.2977 1.59362 25.24 1.74896 25.1538 1.88866L23.61 4.40116C23.5245 4.54136 23.4121 4.66327 23.2793 4.75989C23.1465 4.8565 22.9959 4.92591 22.8361 4.96413C22.6764 5.00234 22.5107 5.00861 22.3486 4.98258C22.1864 4.95654 22.031 4.89871 21.8913 4.81241C21.7513 4.72666 21.6296 4.61412 21.5332 4.48126C21.4368 4.34839 21.3676 4.19781 21.3295 4.03814C21.2914 3.87847 21.2852 3.71285 21.3113 3.55078C21.3373 3.3887 21.3951 3.23212 21.4813 3.09241ZM7.28376 4.39991C7.36704 4.54473 7.4785 4.67138 7.61155 4.7724C7.7446 4.87341 7.89655 4.94672 8.05842 4.98801C8.22029 5.0293 8.3888 5.03773 8.55398 5.01279C8.71916 4.98785 8.87766 4.93006 9.02013 4.84283C9.1626 4.75559 9.28613 4.64069 9.38344 4.5049C9.48074 4.36911 9.54984 4.2152 9.58665 4.05225C9.62347 3.88931 9.62724 3.72063 9.59776 3.5562C9.56828 3.39177 9.50614 3.23492 9.41501 3.09491L7.87376 0.581162C7.69798 0.304028 7.42025 0.107143 7.10055 0.0330151C6.78084 -0.0411128 6.44481 0.0134629 6.165 0.184959C5.88519 0.356456 5.68405 0.631115 5.60501 0.949637C5.52596 1.26816 5.57535 1.60499 5.74251 1.88741L7.28376 4.39991ZM4.55126 7.15991L2.30376 6.08366C2.15588 6.01225 1.99533 5.9708 1.83136 5.96169C1.66739 5.95259 1.50324 5.97602 1.34837 6.03063C1.19349 6.08524 1.05095 6.16994 0.928946 6.27988C0.806946 6.38981 0.7079 6.52279 0.637513 6.67116C0.566606 6.81913 0.525556 6.97963 0.516709 7.14347C0.507862 7.30731 0.531392 7.47129 0.585953 7.62604C0.640514 7.78078 0.725038 7.92326 0.834691 8.04532C0.944345 8.16738 1.07698 8.26664 1.22501 8.33741L3.47251 9.41366C3.62038 9.48478 3.78082 9.52603 3.94465 9.53505C4.10848 9.54407 4.27249 9.52068 4.42726 9.46622C4.58204 9.41177 4.72456 9.32731 4.84665 9.21769C4.96874 9.10808 5.06801 8.97545 5.13876 8.82741C5.20967 8.67944 5.25072 8.51895 5.25957 8.35511C5.26841 8.19126 5.24488 8.02728 5.19032 7.87254C5.13576 7.71779 5.05124 7.57531 4.94159 7.45325C4.83193 7.33119 4.6993 7.23069 4.55126 7.15991ZM15.33 5.00116C8.43751 5.11491 2.97501 12.5849 6.71751 19.7799C7.28626 20.8724 8.13001 21.7874 9.03626 22.6212C9.38001 22.9374 9.64626 23.3287 9.87376 23.7487H14.25V17.2687C13.521 17.0117 12.8893 16.5354 12.4417 15.9052C11.9941 15.275 11.7525 14.5217 11.75 13.7487C11.75 13.4171 11.8817 13.0992 12.1161 12.8648C12.3506 12.6304 12.6685 12.4987 13 12.4987C13.3315 12.4987 13.6495 12.6304 13.8839 12.8648C14.1183 13.0992 14.25 13.4171 14.25 13.7487C14.25 14.0802 14.3817 14.3981 14.6161 14.6325C14.8506 14.867 15.1685 14.9987 15.5 14.9987C15.8315 14.9987 16.1495 14.867 16.3839 14.6325C16.6183 14.3981 16.75 14.0802 16.75 13.7487C16.75 13.4171 16.8817 13.0992 17.1161 12.8648C17.3506 12.6304 17.6685 12.4987 18 12.4987C18.3315 12.4987 18.6495 12.6304 18.8839 12.8648C19.1183 13.0992 19.25 13.4171 19.25 13.7487C19.2475 14.5217 19.0059 15.275 18.5583 15.9052C18.1107 16.5354 17.4791 17.0117 16.75 17.2687V23.7487H21.085C21.37 23.2599 21.7375 22.7987 22.2188 22.3974C23.0425 21.7099 23.8175 20.9437 24.2938 19.9824C26.465 15.5912 25.6038 10.9087 22.5113 7.86866C21.5665 6.93519 20.4443 6.20041 19.2109 5.7077C17.9775 5.21499 16.6579 4.97558 15.33 5.00116ZM10.49 26.5974C10.39 28.4299 11.7625 29.9999 13.5975 29.9999H17.3738C17.7841 29.9999 18.1905 29.9191 18.5697 29.762C18.9488 29.605 19.2933 29.3748 19.5835 29.0846C19.8737 28.7944 20.1038 28.4499 20.2609 28.0708C20.4179 27.6917 20.4988 27.2853 20.4988 26.8749V26.2499H10.4763C10.4763 26.3674 10.4975 26.4774 10.49 26.5974ZM30.3913 6.62491C30.3241 6.4751 30.228 6.34004 30.1085 6.22747C29.989 6.11491 29.8485 6.02707 29.6949 5.96899C29.5413 5.91091 29.3778 5.88375 29.2137 5.88906C29.0497 5.89436 28.8882 5.93204 28.7388 5.99991L26.3238 7.08991C26.1686 7.15365 26.0279 7.24796 25.9099 7.36722C25.792 7.48649 25.6993 7.62827 25.6373 7.78413C25.5753 7.93998 25.5453 8.10672 25.5491 8.27441C25.5529 8.4421 25.5904 8.60731 25.6593 8.7602C25.7283 8.9131 25.8274 9.05054 25.9506 9.16436C26.0738 9.27817 26.2186 9.36602 26.3765 9.42268C26.5344 9.47934 26.702 9.50365 26.8695 9.49415C27.037 9.48466 27.2008 9.44155 27.3513 9.36741L29.7663 8.27741C29.916 8.21013 30.0509 8.11397 30.1634 7.99445C30.2759 7.87492 30.3636 7.73438 30.4217 7.58086C30.4798 7.42735 30.507 7.2639 30.5017 7.09986C30.4965 6.93582 30.459 6.77442 30.3913 6.62491Z" fill="white"/>
</svg>
