<svg width="20" height="21" viewBox="0 0 20 21" fill="none" xmlns="http://www.w3.org/2000/svg">
<g clip-path="url(#clip0_157_4593)">
<path d="M17.5 20.5H15.8333V16.2975C15.8327 15.6442 15.5728 15.0178 15.1109 14.5558C14.6489 14.0938 14.0225 13.834 13.3692 13.8333H6.63083C5.9775 13.834 5.35111 14.0938 4.88914 14.5558C4.42716 15.0178 4.16733 15.6442 4.16667 16.2975V20.5H2.5V16.2975C2.50132 15.2023 2.93696 14.1524 3.71135 13.378C4.48575 12.6036 5.53567 12.168 6.63083 12.1667H13.3692C14.4643 12.168 15.5143 12.6036 16.2886 13.378C17.063 14.1524 17.4987 15.2023 17.5 16.2975V20.5ZM10 10.5C9.01109 10.5 8.04439 10.2068 7.22215 9.65735C6.3999 9.10794 5.75904 8.32705 5.3806 7.41342C5.00216 6.49979 4.90315 5.49446 5.09607 4.52455C5.289 3.55465 5.7652 2.66373 6.46447 1.96447C7.16373 1.26521 8.05464 0.789002 9.02455 0.596076C9.99445 0.40315 10.9998 0.502166 11.9134 0.880605C12.827 1.25904 13.6079 1.89991 14.1573 2.72215C14.7068 3.5444 15 4.5111 15 5.5C14.9987 6.82568 14.4715 8.09668 13.5341 9.03408C12.5967 9.97147 11.3257 10.4987 10 10.5ZM10 2.16667C9.34073 2.16667 8.69626 2.36217 8.1481 2.72844C7.59994 3.09471 7.17269 3.6153 6.9204 4.22439C6.66811 4.83348 6.6021 5.5037 6.73072 6.1503C6.85933 6.79691 7.1768 7.39085 7.64298 7.85703C8.10915 8.3232 8.7031 8.64067 9.3497 8.76929C9.9963 8.89791 10.6665 8.83189 11.2756 8.5796C11.8847 8.32731 12.4053 7.90007 12.7716 7.3519C13.1378 6.80374 13.3333 6.15927 13.3333 5.5C13.3333 4.61595 12.9821 3.7681 12.357 3.14298C11.7319 2.51786 10.8841 2.16667 10 2.16667Z" fill="#727272"/>
</g>
<defs>
<clipPath id="clip0_157_4593">
<rect width="20" height="20" fill="white" transform="translate(0 0.5)"/>
</clipPath>
</defs>
</svg>
