<svg width="20" height="20" viewBox="0 0 20 20" fill="none" xmlns="http://www.w3.org/2000/svg">
<g clip-path="url(#clip0_157_3204)">
<path d="M10.3574 19.9881C11.8868 19.7709 13.2276 18.1746 14.0712 15.8173C12.8517 15.5441 11.6072 15.3976 10.3575 15.3801L10.3574 19.9881ZM12.8009 19.6133C12.8913 19.5871 12.9813 19.5607 13.0707 19.5318C13.1461 19.5075 13.2205 19.4813 13.2948 19.4553C13.3829 19.4251 13.4705 19.3935 13.5576 19.3606C13.632 19.3323 13.7056 19.3023 13.7794 19.2722C13.8646 19.2365 13.9496 19.2009 14.0338 19.1651C14.1907 19.0955 14.346 19.0222 14.4994 18.9452C14.5709 18.9087 14.6423 18.8715 14.7139 18.8333C14.794 18.7904 14.8736 18.7466 14.9526 18.7015C15.0232 18.6614 15.0933 18.6204 15.1628 18.5785C15.2403 18.5309 15.3174 18.4832 15.394 18.4355C15.4628 18.392 15.531 18.3474 15.5986 18.3019C15.6739 18.2507 15.7485 18.1985 15.8223 18.1453C15.8885 18.0981 15.9544 18.0504 16.0199 18.0024C16.0926 17.9465 16.1648 17.89 16.2365 17.8329C16.3002 17.7821 16.3637 17.7317 16.4264 17.6795C16.4977 17.6202 16.5662 17.5587 16.6355 17.4973C16.6962 17.4434 16.7573 17.3899 16.8166 17.3347C16.8849 17.2709 16.9513 17.205 17.0179 17.1395C17.0755 17.0826 17.1337 17.0266 17.1901 16.9683C17.2006 16.9575 17.2105 16.9458 17.2214 16.9346C16.4418 16.532 15.6205 16.2159 14.7722 15.9921C14.3309 17.3993 13.5458 18.6743 12.4878 19.7016C12.5168 19.6941 12.5457 19.688 12.5747 19.6805C12.6511 19.659 12.7262 19.6354 12.8009 19.6133ZM20 10.3657H15.7142C15.698 12.0391 15.4553 13.7026 14.9926 15.3108C15.9361 15.5628 16.8466 15.9251 17.7053 16.3903C19.1152 14.691 19.9222 12.5723 20 10.3657H20ZM10.3574 9.65081H14.9994C14.9812 8.03659 14.7445 6.43227 14.2957 4.88158C13.0032 5.17636 11.6831 5.33379 10.3574 5.35125V9.65081ZM10.3574 0.0282593V4.63637C11.6071 4.61878 12.8516 4.47228 14.0712 4.19919C13.2276 1.8418 11.8869 0.245581 10.3575 0.0282593H10.3574ZM10.3574 14.6652C11.6831 14.6828 13.0031 14.8403 14.2957 15.135C14.7445 13.5843 14.9812 11.9799 14.9994 10.3657H10.3574V14.6652ZM17.7053 3.62621C16.8466 4.09134 15.9361 4.45365 14.9926 4.70567C15.4553 6.31392 15.6981 7.97741 15.7143 9.65081H20C19.922 7.44419 19.115 5.32561 17.7053 3.62621ZM17.2224 3.08394C17.2119 3.07331 17.202 3.06178 17.1917 3.05079C17.1351 2.99248 17.0765 2.93627 17.0189 2.87957C16.9526 2.81412 16.8864 2.74799 16.818 2.68446C16.7589 2.62928 16.6976 2.57709 16.6368 2.52214C16.5676 2.4607 16.4983 2.39873 16.4271 2.3394C16.3653 2.28721 16.302 2.23731 16.2391 2.18722C16.1673 2.12894 16.0945 2.07196 16.0206 2.01632C15.9559 1.96788 15.8906 1.92023 15.8248 1.87339C15.7503 1.81936 15.6751 1.76653 15.5989 1.71491C15.532 1.66996 15.4644 1.62592 15.3963 1.5828C15.3194 1.53304 15.2416 1.48452 15.1631 1.43727C15.0942 1.39582 15.0247 1.3552 14.9547 1.31543C14.8751 1.26987 14.7948 1.22543 14.7139 1.18211C14.6423 1.14632 14.5709 1.1074 14.4994 1.07162C14.4172 1.03006 14.3343 0.990121 14.2493 0.950848C14.1772 0.916565 14.1046 0.883394 14.0315 0.851346C13.9468 0.813815 13.8613 0.779993 13.776 0.744205C13.7025 0.714007 13.6288 0.684681 13.5547 0.656231C13.4676 0.623273 13.3801 0.59174 13.292 0.561644C13.2176 0.535161 13.1429 0.509617 13.0679 0.485018C12.9785 0.456066 12.8892 0.429705 12.7974 0.403165C12.723 0.381362 12.6483 0.359201 12.5731 0.339274C12.5443 0.331455 12.515 0.325334 12.486 0.317827C13.544 1.34518 14.3292 2.62011 14.7704 4.02726C15.6198 3.80354 16.4421 3.4872 17.2224 3.08394ZM0 9.65081H4.28575C4.30201 7.97743 4.54471 6.31394 5.00724 4.70567C4.06377 4.45378 3.15331 4.09145 2.29474 3.62621C0.884853 5.32551 0.0778731 7.44415 0 9.65081ZM9.64256 19.9881V15.3801C8.3929 15.3977 7.14839 15.5442 5.9288 15.8173C6.77226 18.1747 8.11318 19.7709 9.64256 19.9882V19.9881ZM9.64256 10.3657H5.00063C5.01875 11.98 5.25547 13.5843 5.70433 15.135C6.99685 14.8401 8.31693 14.6826 9.64256 14.6652V10.3657ZM9.64256 0.0282593C8.11318 0.245581 6.77226 1.8418 5.9288 4.19919C7.14836 4.47245 8.39289 4.61896 9.64256 4.63637V0.0282593ZM9.64256 5.35125C8.31694 5.33378 6.99688 5.17635 5.70433 4.88158C5.25547 6.43225 5.01875 8.03658 5.00063 9.65081H9.64256V5.35125ZM7.51122 0.317515C7.48226 0.324976 7.45327 0.331097 7.42431 0.338603C7.34858 0.358843 7.27388 0.381362 7.19846 0.403165C7.10874 0.429348 7.01974 0.455709 6.92971 0.484304C6.85376 0.508922 6.7791 0.535104 6.70439 0.561152C6.61695 0.591981 6.52934 0.622721 6.44275 0.655516C6.36804 0.684155 6.29441 0.713822 6.22042 0.744205C6.1354 0.779948 6.05024 0.815737 5.96629 0.851346C5.89265 0.883649 5.81987 0.917472 5.74691 0.951518C5.66427 0.990306 5.58218 1.03022 5.50063 1.07126C5.34764 1.14871 5.19662 1.23001 5.04772 1.31508C4.97671 1.35474 4.90643 1.39571 4.83692 1.43794C4.75927 1.48472 4.68246 1.53311 4.60602 1.58092C4.53721 1.62488 4.46898 1.66921 4.40147 1.71496C4.32617 1.76609 4.25158 1.81827 4.17772 1.87147C4.11148 1.91873 4.04556 1.96643 3.97997 2.01458C3.90683 2.06953 3.83699 2.12681 3.76336 2.18391C3.69987 2.23467 3.6358 2.28511 3.57365 2.33761C3.50212 2.39663 3.43425 2.45771 3.36526 2.51883C3.30419 2.57325 3.24257 2.62615 3.18288 2.68254C3.11497 2.74589 3.04884 2.81166 2.98254 2.87694C2.9249 2.93386 2.86628 2.99002 2.80976 3.04851C2.79949 3.05932 2.78952 3.07121 2.77867 3.0822C3.55815 3.48501 4.37946 3.80111 5.22787 4.02485C5.66901 2.61848 6.45379 1.34431 7.51122 0.317515ZM2.98098 17.1369C3.04746 17.2023 3.11363 17.2685 3.18185 17.3322C3.24119 17.3871 3.30227 17.4393 3.36316 17.4943C3.43246 17.5559 3.50176 17.6177 3.57298 17.6771C3.63477 17.7289 3.69777 17.779 3.76095 17.8292C3.83248 17.8872 3.90388 17.9448 3.97961 18.0005C4.04404 18.0488 4.10949 18.0956 4.1749 18.1436C4.24961 18.1972 4.32503 18.2507 4.40112 18.3022C4.4681 18.3471 4.53564 18.3913 4.60374 18.4345C4.68103 18.4841 4.75819 18.5328 4.83692 18.5799C4.90586 18.6214 4.97547 18.6621 5.04531 18.7019C5.12492 18.7474 5.2052 18.7918 5.28613 18.835C5.35753 18.8708 5.4291 18.9098 5.50063 18.9455C5.58285 18.9871 5.66577 19.027 5.75075 19.0665C5.82228 19.1002 5.89489 19.1333 5.96856 19.1658C6.05319 19.2033 6.13857 19.2372 6.22409 19.273C6.29772 19.303 6.37104 19.3326 6.44538 19.3609C6.53211 19.3943 6.62008 19.4253 6.70805 19.4556C6.7824 19.4817 6.85675 19.5079 6.93212 19.5321C7.02148 19.5611 7.11084 19.5876 7.20266 19.614C7.277 19.6358 7.35171 19.658 7.42677 19.678C7.45572 19.6859 7.48503 19.692 7.51403 19.6995C6.45606 18.672 5.6709 17.397 5.22956 15.9899C4.38116 16.2137 3.55987 16.5299 2.78041 16.9329C2.79091 16.9435 2.80087 16.955 2.81133 16.966C2.86494 17.024 2.92267 17.0802 2.98098 17.1369ZM2.29474 16.3902C3.15338 15.9251 4.06382 15.5628 5.00724 15.3108C4.54471 13.7025 4.30201 12.039 4.28575 10.3656H0C0.0779835 12.5723 0.88495 14.6909 2.29474 16.3902Z" fill="white"/>
</g>
<defs>
<clipPath id="clip0_157_3204">
<rect width="20" height="20" fill="white"/>
</clipPath>
</defs>
</svg>
